PathFileType	4	(X/Y/Z)	\\Move.snu.ac.kr\motion\Animal\091204_091205_Bird\091205_bird\Project 2\Capture day 2\Session 1\pigeon_009.trc
DataRate	CameraRate	NumFrames	NumMarkers	Units	OrigDataRate	OrigDataStartFrame	OrigNumFrames
240.0	240.0	25	14	mm	240.0	1	2292
Frame#	Time	14MarkersBird:Head			14MarkersBird:C_back			14MarkersBird:Spine			14MarkersBird:L-shoulder			14MarkersBird:L-elbow			14MarkersBird:L-wrist			14MarkersBird:L-hand			14MarkersBird:R-shoulder			14MarkersBird:R-elbow			14MarkersBird:R-Wrist			14MarkersBird:R-hand			14MarkersBird:C_Tail			14MarkersBird:L-Tale			14MarkersBird:R-Tale			
		X1	Y1	Z1	X2	Y2	Z2	X3	Y3	Z3	X4	Y4	Z4	X5	Y5	Z5	X6	Y6	Z6	X7	Y7	Z7	X8	Y8	Z8	X9	Y9	Z9	X10	Y10	Z10	X11	Y11	Z11	X12	Y12	Z12	X13	Y13	Z13	X14	Y14	Z14	

767	3.192	930.61365	2266.05933	-1936.02698	964.39764	2218.89136	-1961.53271	999.22052	2189.04175	-1990.22729	959.93939	2229.89526	-1918.88293	985.75751	2236.02246	-1921.46985	985.21045	2239.14917	-1877.20532	999.29749	2252.16455	-1850.44275	923.83612	2220.11401	-1960.73413	925.05176	2218.63696	-1990.91016	884.71631	2210.61719	-2005.34998	854.59412	2208.06030	-2032.80505	1057.71057	2079.92505	-2014.68640	1079.78650	2127.78296	-1943.17578	966.64990	2085.26929	-2041.66541	
768	3.196	929.14301	2270.51758	-1935.22400	964.53363	2225.28296	-1960.59534	1000.06012	2196.13647	-1989.22437	959.43695	2234.97656	-1918.74780	984.64691	2236.46362	-1915.05432	972.17584	2231.02344	-1868.92310	981.10333	2237.20972	-1839.38940	922.50073	2224.35962	-1959.56555	919.04144	2217.27808	-1988.21240	879.54828	2203.20410	-1992.22278	845.17004	2191.55762	-2010.77930	1062.83923	2089.15479	-2011.80640	1080.41895	2137.12939	-1939.48938	971.71704	2090.23364	-2039.55383	
769	3.200	927.72620	2275.18066	-1934.73132	964.80096	2231.84692	-1959.75757	1001.28381	2203.48633	-1987.35828	957.67853	2240.17139	-1917.61462	982.60956	2235.92603	-1910.31323	961.34595	2226.65527	-1869.94128	958.46985	2220.76660	-1838.91064	921.75763	2229.31616	-1958.70081	915.51373	2217.05908	-1983.44397	878.16949	2199.53394	-1976.65051	843.18304	2184.36792	-1986.36877	1066.99182	2097.72754	-2007.93335	1080.62939	2145.92578	-1935.20325	976.42145	2095.70825	-2037.95532	
770	3.204	924.63843	2278.56250	-1932.39331	964.60345	2237.90039	-1958.26855	1001.73853	2209.51416	-1984.79919	955.76007	2245.24805	-1916.42773	978.92853	2235.63452	-1908.39136	950.59302	2228.66528	-1874.54785	943.58356	2219.58936	-1851.02698	921.50629	2235.07300	-1958.15710	916.45032	2219.63940	-1979.67371	882.67877	2205.97119	-1964.96057	851.72919	2187.50879	-1963.89087	1069.10901	2104.99731	-2003.29517	1079.46240	2152.70215	-1930.52417	980.95764	2102.87451	-2038.70410	
771	3.208	921.85815	2282.22583	-1930.57788	964.22070	2243.93286	-1956.73218	1002.14044	2215.71924	-1982.21362	954.16370	2250.27759	-1915.39819	976.82166	2236.33350	-1906.81311	942.83478	2231.50610	-1877.98499	929.72253	2218.24268	-1859.43396	921.16980	2240.65454	-1957.61609	916.89331	2222.20728	-1976.94885	885.78839	2211.67896	-1955.53235	857.74451	2191.00903	-1945.26782	1071.25012	2112.33252	-1998.96350	1078.36914	2159.49951	-1926.08081	985.40314	2109.81152	-2038.95630	
772	3.213	918.76855	2285.68018	-1928.66052	963.40546	2249.73535	-1954.89392	1002.20081	2221.64087	-1979.30627	952.58392	2255.11108	-1914.21252	975.86749	2238.45898	-1906.60840	938.78064	2237.68823	-1881.40906	920.56622	2222.38745	-1868.11169	920.86737	2246.30347	-1957.11890	918.67932	2226.14111	-1975.92737	889.37323	2220.47314	-1950.51648	864.47864	2199.19751	-1932.99280	1072.52698	2119.14941	-1994.65100	1076.77051	2165.43481	-1921.73145	989.51721	2116.99341	-2039.28284	
773	3.217	915.45697	2288.92603	-1926.74670	962.12683	2255.28027	-1952.79236	1001.91406	2227.32568	-1976.19360	950.82446	2259.64844	-1912.70081	976.12183	2242.34570	-1907.18933	938.36316	2246.26050	-1883.44678	916.74127	2230.71753	-1874.33618	920.42719	2251.85791	-1956.53271	921.47083	2231.57715	-1976.76819	892.26520	2231.13354	-1950.35107	869.72357	2210.10010	-1928.57556	1073.04980	2125.44946	-1990.50476	1074.69446	2170.51147	-1917.51709	993.10052	2124.02124	-2039.14209	
774	3.221	912.01599	2291.94043	-1924.91211	960.42834	2260.51221	-1950.49829	1001.30975	2232.77026	-1972.97058	948.74573	2263.93872	-1910.88513	977.08099	2247.96021	-1908.01978	940.76642	2256.28687	-1883.71265	917.85388	2241.28638	-1876.57178	919.75525	2257.26855	-1955.81213	925.02264	2238.63989	-1978.86121	894.01703	2242.52222	-1954.45959	872.44873	2221.37036	-1931.93408	1072.93518	2131.18311	-1986.60376	1072.13501	2174.73047	-1913.37085	995.93542	2130.56177	-2038.20728	
775	3.225	908.56458	2294.70703	-1923.22815	958.38904	2265.34888	-1948.08655	1000.43811	2237.92676	-1969.69482	946.43579	2268.19385	-1908.99719	978.07428	2255.05127	-1909.12048	944.89374	2267.24316	-1882.85986	922.99982	2252.47974	-1874.86914	918.86456	2262.58984	-1954.95496	929.12622	2247.32227	-1981.01306	895.18518	2254.04370	-1961.57019	873.33862	2231.41577	-1941.88159	1072.25647	2136.29297	-1982.98022	1069.08801	2178.15332	-1909.18555	997.84967	2136.50073	-2036.48340	
776	3.229	905.25433	2297.25586	-1921.77075	956.14392	2269.77661	-1945.68530	999.35175	2242.76294	-1966.38318	944.04956	2272.61157	-1907.27319	978.55750	2263.18359	-1911.05237	949.73065	2278.90918	-1882.22156	931.36884	2263.53979	-1870.87878	917.87164	2267.92188	-1953.90527	933.51025	2257.35400	-1981.87000	896.85089	2265.70239	-1970.03430	874.47540	2240.25610	-1956.65369	1071.03528	2140.76636	-1979.62561	1065.60706	2180.97876	-1904.89026	998.76495	2141.98804	-2034.26074	
777	3.233	902.21027	2299.66431	-1920.56152	953.89728	2273.91772	-1943.49194	998.09344	2247.28198	-1963.03638	941.68555	2277.25757	-1905.85449	978.08087	2271.65894	-1914.28149	954.33368	2290.99512	-1883.12134	942.34399	2274.58252	-1867.35229	916.91486	2273.26147	-1952.52563	937.85168	2268.16064	-1980.50305	899.99817	2277.72412	-1978.04626	878.29846	2249.44287	-1974.07324	1069.28149	2144.64014	-1976.49609	1061.80286	2183.51245	-1900.45874	998.69330	2147.33667	-2031.98047	
778	3.237	899.48914	2302.04028	-1919.55310	951.88123	2277.98340	-1941.72827	996.70697	2251.50464	-1959.66016	939.29968	2281.97485	-1904.70752	976.34161	2279.68823	-1918.66333	957.89368	2302.99341	-1886.28113	954.73474	2286.15674	-1866.94910	916.06903	2278.42773	-1950.76135	942.56323	2279.92993	-1978.93665	904.99500	2290.09424	-1983.95142	886.32605	2261.04883	-1991.45239	1067.04980	2147.98267	-1973.54175	1057.80688	2186.06860	-1895.86951	997.66846	2152.86597	-2030.08655	
779	3.242	897.07819	2304.49146	-1918.66333	950.18665	2282.06567	-1940.44226	995.24408	2255.44385	-1956.27356	936.66534	2286.39771	-1903.61096	973.29529	2286.73071	-1923.48767	959.85785	2314.34229	-1891.58643	966.50360	2298.76465	-1870.95142	915.32086	2283.18115	-1948.80688	945.87329	2290.77319	-1971.88818	911.43250	2302.47388	-1986.70325	898.48199	2276.34814	-2005.76135	1064.45874	2150.88062	-1970.72888	1053.74182	2188.88892	-1891.07959	995.68152	2158.81299	-2028.90588	
780	3.246	894.92407	2307.09131	-1917.82349	948.68439	2286.03003	-1939.42029	993.74640	2259.08276	-1952.91650	933.63403	2290.24878	-1902.45349	969.22205	2292.60596	-1927.81702	959.96295	2324.70215	-1898.24219	975.56659	2312.56055	-1878.99060	914.54364	2287.43433	-1946.99939	948.44293	2298.46997	-1963.74695	918.34845	2314.38745	-1986.09827	913.34290	2295.01978	-2014.35681	1061.67322	2153.42554	-1968.03430	1049.70813	2192.11548	-1886.04370	992.66901	2165.32861	-2028.61926	
781	3.250	892.97784	2309.87964	-1917.00476	947.17749	2289.67725	-1938.38538	992.22961	2262.38745	-1949.65588	930.36487	2293.60815	-1901.43347	964.74225	2297.46143	-1930.99329	958.19788	2334.05688	-1905.13818	980.61682	2327.20898	-1889.83423	913.61151	2291.25000	-1945.59351	943.89484	2302.87793	-1961.06604	924.55072	2325.37280	-1982.55725	928.81964	2315.33984	-2015.77820	1058.89331	2155.70215	-1965.43164	1045.78113	2195.79272	-1880.75842	988.63367	2172.35278	-2029.13867	
782	3.254	891.21851	2312.87329	-1916.20923	945.55652	2292.92383	-1937.19458	990.72083	2265.36816	-1946.57727	927.18860	2296.80054	-1900.84851	960.64325	2301.63770	-1932.85474	954.75812	2342.53711	-1911.08752	981.19470	2341.88013	-1901.96021	912.52069	2294.75488	-1944.68298	940.27698	2308.53149	-1959.25281	928.99042	2335.10425	-1976.96240	942.76190	2335.15625	-2010.23083	1056.33972	2157.80225	-1962.87622	1042.03516	2199.88599	-1875.30969	983.82959	2179.55347	-2030.04224	
783	3.258	889.65027	2316.07251	-1915.45935	943.79626	2295.80444	-1935.82593	989.24768	2268.14185	-1943.76636	924.35577	2300.12378	-1900.76453	957.38483	2305.58447	-1933.51306	949.99249	2350.21826	-1915.00098	977.56006	2355.53198	-1913.41833	911.32068	2298.10864	-1944.20984	937.38757	2315.43091	-1958.23315	931.11182	2343.38867	-1970.78638	953.28693	2352.84912	-1999.75854	1054.19495	2159.84253	-1960.27979	1038.59900	2204.33594	-1869.90405	978.86884	2186.49072	-2030.80688	
784	3.263	888.26758	2319.46021	-1914.79834	941.91846	2298.41846	-1934.32349	987.79785	2270.88306	-1941.29028	921.90741	2303.65820	-1900.92175	954.78564	2309.73633	-1933.00745	944.25604	2357.14233	-1916.23181	970.74109	2367.38647	-1921.72046	910.02905	2301.40308	-1944.03809	935.02502	2322.03442	-1957.93311	931.01276	2350.08228	-1966.01355	959.07770	2367.61182	-1988.08606	1052.52344	2161.96313	-1957.47522	1035.67688	2209.13403	-1864.83215	974.65826	2192.75439	-2031.07581	
785	3.267	887.02020	2323.00415	-1914.30530	939.94586	2300.87305	-1932.73438	986.33685	2273.73096	-1939.17737	919.71606	2307.26392	-1900.92285	952.29401	2314.29834	-1931.20728	937.81848	2363.35352	-1914.77979	962.44281	2377.25708	-1924.42102	908.63177	2304.56274	-1944.03308	932.98792	2326.60742	-1958.27869	929.32892	2354.93628	-1964.54846	959.86682	2378.98682	-1979.75696	1051.24365	2164.31543	-1954.23718	1033.45276	2214.34766	-1860.36377	972.10895	2197.97388	-2030.64978	
786	3.271	885.82867	2326.68628	-1914.07227	937.90106	2303.27563	-1931.10522	984.84283	2276.75684	-1937.40552	917.56146	2310.71509	-1900.44153	949.36908	2319.18359	-1927.87756	931.14996	2368.66675	-1910.85901	954.43097	2385.33936	-1920.13379	907.08423	2307.43726	-1944.08557	931.08649	2328.77783	-1959.20093	926.86102	2357.46338	-1967.31836	956.65350	2386.26636	-1978.29822	1050.19958	2167.04883	-1950.37830	1031.93726	2220.06641	-1856.62744	971.71185	2201.87280	-2029.37695	
787	3.275	884.59448	2330.52759	-1914.17664	935.80713	2305.73364	-1929.48364	983.31104	2279.99805	-1935.91174	915.19226	2313.90674	-1899.35706	945.72516	2324.20874	-1923.06970	925.33740	2372.31934	-1904.14575	947.58734	2391.56592	-1909.09094	905.34705	2309.89673	-1944.08777	929.33441	2330.03589	-1960.22925	924.04077	2356.99902	-1973.82288	951.06042	2388.42383	-1984.61707	1049.30591	2170.32617	-1945.87122	1030.92859	2226.35498	-1853.55115	973.29242	2204.35107	-2027.08362	
788	3.279	883.18170	2334.55713	-1914.63477	933.68671	2308.35449	-1927.91626	981.74908	2283.48022	-1934.61328	912.40759	2316.94824	-1897.81104	941.40839	2329.26563	-1916.98474	921.55939	2373.20435	-1893.94861	941.32916	2395.20850	-1892.93298	903.38593	2311.86646	-1943.96814	927.24487	2328.83447	-1962.13416	920.62878	2353.10083	-1982.45544	944.11218	2384.59399	-1996.96704	1048.63770	2174.32129	-1940.89502	1030.11426	2233.24268	-1850.91150	976.10718	2205.58423	-2023.67542	
789	3.283	881.44781	2338.76025	-1915.37219	931.56262	2311.24536	-1926.45007	980.16467	2287.23340	-1933.42236	909.17047	2320.09668	-1896.16675	936.80304	2334.11792	-1909.97949	919.10254	2370.98462	-1881.02808	934.00867	2395.21680	-1874.16064	901.14551	2313.36572	-1943.78540	924.92523	2329.21631	-1962.84937	915.94745	2345.92236	-1991.20386	935.51202	2374.61377	-2012.08020	1048.37280	2179.18408	-1935.75623	1029.19409	2240.72388	-1848.43896	979.20599	2205.98047	-2019.24597	
790	3.287	879.33856	2343.03979	-1916.22852	929.45599	2314.50684	-1925.12903	978.56525	2291.28687	-1932.25146	905.64880	2323.42236	-1894.75354	932.19843	2338.33716	-1902.22998	915.34735	2366.33789	-1868.00366	924.12048	2390.90332	-1855.57971	898.56378	2314.53809	-1943.66772	922.57721	2328.88940	-1964.19604	909.44763	2336.20850	-1998.22131	924.16650	2359.19946	-2026.21826	1048.64502	2184.97485	-1930.72839	1027.94971	2248.72290	-1845.91760	981.83698	2206.02124	-2014.04224	
791	3.292	876.94452	2347.27563	-1917.07581	927.38953	2318.21167	-1923.99072	976.95862	2295.67041	-1931.01221	902.07349	2326.71851	-1893.67859	927.44226	2341.40210	-1894.04956	908.43939	2359.93408	-1857.42371	911.26215	2382.24243	-1839.83289	895.63190	2315.69922	-1943.73523	919.95074	2328.86792	-1963.00208	901.05536	2325.00415	-2001.99109	909.40619	2339.88574	-2035.76245	1049.41736	2191.61206	-1925.90723	1026.26172	2257.06421	-1843.23193	983.67969	2206.11890	-2008.31641	
